<svg 
    id="Layer_1" data-name="Layer 1"
    xmlns="http://www.w3.org/2000/svg" 
    viewBox="0 0 1907.09 1600.27"
    x="0px"
    y="0px"
    width="792.54596"
    height="316.66394"
    >
<!-- <defs>
    width="784.077px"
    height="458.627px"
    <style>
        .cls-1,.cls-2,.cls-3{fill:#cfcfcf;stroke:#fff;}.cls-1,.cls-2{stroke-linecap:round;stroke-linejoin:round;}.cls-1,.cls-3{stroke-width:0.27px;}.cls-2{stroke-width:0.27px;}
    </style>
</defs> -->
    <title>PetaPapuaSVG</title>
    <g id="Papua">        
        <path id="Kabupaten_Nabire" data-name="Kabupaten Nabire" class="cls-1" d="M1442.93,595.87l-3.2,4.09-1.56-2Zm-4.44-16-.31,3.88-6.34,3.84-3.9-3.23,5-4.16ZM1282,538.29l6.86,3.44-4.37,3.38-5.68-2.4.89-4.17Zm197.47,34.13,5.86,2.25,7.63,2.41,9.89,1.42-.13,5.21,3.5,8.69,5.75,9.16-3.3,3.7,4.56,7.16-2.6,9.06c-1.64,2-2.94,2.53-4,5.09l-1.44,8.24-1.61,11-6.59,1.33-9.28,6.35-5.42,2.91-9.74,10.33-9.66,4.75-13.19.17-.78,5.33-13.52,13.2-1,10.48,2.59,9-.85,11.23-8,2.85-2.75,9.45-11.46,6.26-3.66.59-4.71,1.38-3.92,2.76-5.82-3.06-8.24-1.69-6.85-1.26-7.2-4.86-14.24,1.66-8.38-6.06L1337.77,723l-6.62,1-2.68-9.83L1324,711l-13.8-4.82-17.23-11.76-4.51-10.31-2.12-9.95-3.11-21.76-5.82-13.25-.38-9.88-10.06-13-7.62-20.58-12.47-12.81-3.24-11.54-2.75-21.24,11.84-3,4.17,11.79-1.26,1.17,1,8.29,3.74,5L1258,577.5l3,4.21-1,2.95,8.44,4.22,6.16-.81.15-7.09,3.25,1.39,1.78-6.53L1286,573l.53,9.84-3,2.27,3.47,5.76-6.54,3.24,1.4,8.76-2.93,10,5.62.63,4,3.12.17,4.42-2.06.89,2.15,10,10.05,1.92.14-4.32,3.53,1.63-.31,6.08,6.48,7.18,6.25,2,4.29-1.79,6.42,2.59,4,6,6.46-1.77,7.69,1.62,6.91-.79,11.84,1.77,2.84,1.45,15.1-4.85,5.08,2,8.92-3.81,8.9-9.4,1-5.47-1.82-.36,6-10,3.47-3.59,14.56-4.94,3-3.77,5.57-2,2.45-4.63-6.16-2,5.18-4.12,2.21,1.77,7.07-3.59,1.38-3.92,7.15-4.17,4.06-.08,5.12-5.22,1.17-3.59-.07-7.7-3.59.68-.64-4.14,3.57-3.19,9.88,1Z" transform="translate(-396.03 0.13)"/>
        <path id="Kabupaten_Kepulauan_Yapen" data-name="Kabupaten Kepulauan Yapen" class="cls-2" d="M1530.76,410.21l4.31,2.36,1.72,3.63-2,3-4.15-4.23Zm114.06-12.5-1.71,4.45-9.67-2.53.25-1.48Zm-255.17-38.16,3.22,1.54,11.15.47,12.88,2.52,2.23-1.23,21.56,1.19,14.06,5.69,1.82-3.77,5.44-.44,7.79,1.39,2,1.66,5.41-1.17,7.46,2.11,3.9-1.52,17.74.88,3.36-1.2,4.69,3.5,12,2.87,3.44,2.78,7.15,2.17,6.53.54,8.72-2.67,5.16.56L1573,381l8.15-.68,12.63,1.13,9.7,2.55,2.66-1.21,11.92,5.8,3.39.57-2,5.87-3.32,2.15-7.87-2.41-6.56,2.11-6.18-1.71-4.15,4.95-2.66-1.42-5.32,5.09-4.85-.72-14.24,1-.62,4.24-5.42-2.51-9.26,1.54-5.07-2.58-6.27,1.47-2-2.32-7.81-.92-7.91,4.82-6.37-.84-1.52-2-7.41-.51-4.74-3.07-7.25-1.58-4.07,1.07-8.24-5.06-7.78-.4-1.08-2.31-9.62-4-2.25,1.63-2.41-5.79-4.39,2.38-2-3.47-2.17,1.89-5.43-2.9-1.84-3.21-7-.58-6-4.46-6.07,2.71-2.79-3.33-6.05,1.74-1.92-2.61-5.32-.09-3.38-3-4.48,2.88-1.38-2.95-3.12,2.88-3.91.25-2.83-7.92-2.51.62-.38-4.19Zm-58.65-22,6,4.12,1.35-2,8.47-.64,13.44,1.84,4.67,3.91-10.52,2.87-3.16-.85-14-.1-5.71-3.36-3.89,1.26-.23-3.47Z" transform="translate(-396.03 0.13)"/>
        
        <path id="Kabupaten_Biak_Numfor" data-name="Kabupaten Biak Numfor" class="cls-2" d="M1513.26,298.72l-4,4.7-2-2.26Zm16.21-2-3.69,4.43-1.54-1.58Zm45.56-4.39,2.1,5.26-3.68.74-1.74-5.5Zm-287.32-42.85,4.52.66,7.25,3.31,2.77,2.8,1.45,9,4.43-2.41.23,10-4.82,8.93-11,2.21-8.31-6.08-3.77-8.47-2.94-3.29.85-6-1.25-2.44,2.24-3.69,6.38-4.55Zm140.38-21.09,5-1.43,10.67-8.85v-8.89l10.23,3.27,7,8.23,2.77,5.57,1.91-.73,6,4.34,10.44,5.06,2.36,2.19-1.12,5.33,2.62-.26,5.19,5,1.55,7.56,8.45,5.48,1.09,5.21,2.26,2.69,13.94-4.4,5.68,2.41.78,3.76,5.92,3.44,4.65-2.06,4.26,1.64-1,2.74L1528,284l-7.6,3.31-15.63,3.43-6.27,3-12.56-3.4-4-5.26-5.75-.82-9.09.67-5.28,2.28-1.17,2.94-7.93-1.89-5.08-5-4.12-6.37,2.73-1.39,1.13-9.4-3.63-4.83L1441.1,255l.08-4.51-2-2.49-1.55-9.65-4.15-8.81Z" transform="translate(-396.03 0.13)"/>
        
        <path id="Kabupaten_Supiori" data-name="Kabupaten Supiori" class="cls-2" d="M1443.73,209.18v8.89l-10.67,8.85-5,1.43-10.85,13.85-5.11-5.53-6.45-3.93-2.87-4.36-4.36-3.36-10.13-4,5.1,7.34,7.72,7.58-2.4,1.25-3.68-1.82.23-2.8-4.26-2.15,1.07-1.69-11.8-8.5-5.58-9,1.49-1.26-3.5-4.15-1.45-6,5-1.4,3.85,5.16,2.68-1.68,4.88.57,3.12,2.61,2.2-1.67,7.4,2.33,12.9.76,3.93-1.37,6.22,5,2.52,4.94,3-2.4,3.74,4,3.48.79,3.46-2.63Z" transform="translate(-396.03 0.13)"/>
        
        <path id="Kabupaten_Merauke" data-name="Kabupaten Merauke" class="cls-1" d="M1965.21,1473.89l-3.79,1.61-3.43-1.81.36-5.72Zm3.69-11.94,1.82,1.23-4.83,5.74-4.55-1.21-1.25-2.86Zm-16.51.68,4.46,2.74-1.14,10.74-2.69,2.35-6.47.55-1.16-2.42.87-3.9V1472l-.43-.61.31-.63-.38-2,.54-2.12-.48-.53-.28-.76.23-.49.44-.06.4-.3-.07-.64-.22-.54.28-.78,1.06-.78,1.61-.47Zm17.51-9.36-.23,4.51-2.54,4.14-7.5,2.53-1.58-3.89,6-3.16.59-.91.6-2Zm-18.89,6-5.5-3,.5-7.84,5.87,5.53Zm-10.32-19.87,3.36,3.89,1.15,4.1.12,10.77,3.87,3.17-1.88.65-.7.57-.34.59v.3l.21.74,0,.51-.64.19-.31.53,0,.27.24,3,.35,2.27-.26.41v.28l.43.58-.66,1.31-.3,2.4-1.19,2-6.89-.85-7.67,1.22-6.88-.84-6.06-2.07-9.25-.43-8.1-1.76-2.51-3.43,5.63-7.37,12.46-8.73,1.65-3.28,1.19-7.78,5.23.17,7.39-1.43,9.87-4Zm-24-129.27,11.89.73,6.74,1.63,9.55,5.83,3.69,3.8,4.4,9.48,6.86,7.76,9.68,2.56,5-.2,9.48,1.84-.44,3.42-4.22,3.39-3.37,7.73.09,4.8-5.14,7-1.93,5.29,1.53,11.54-2.59,4.75-8.64,2.6-5.74,4.5-1,3,2,8-2.19,11.07,3.88,4.09v2.43l-8.72-1.26-7.15,3.48-2.53,7.71-11.26,2.83-8.16-1.08-3.86,4.51-1.11,5-6.26,7.38-7.82,4.58-5.43,4.56-5.56,1.83-1.06,4.37-8.79,6.94-16.51,5.77-6.21.86-6.26-.9-.24-4.54-6.79-2.22-4.09.94-20,.54-26.91-.6-9.26.18-19.9,3.44-6.56,2.58-6.84,4.07-2.44-4.7,2.5-8.24,2-11.2,2.75-10.48,6.1-15.07,10.63-15.28,5-2.23-2.86-4.34,1.06-4.35,5.21-11.59,11.62-21.17,4.27-5.17,5.76-3.4,3.75-9.66,7.73-10.35,13.55-12.75,12.33-8.48,6.37-3.43,13.71-5.65,14.17-3.65,26.57-3.6,10.13-2.51Zm-1-25,87,18,11.93,6.2,17.8,2.43,9.32-29.86-9.49.33-6-6.45,7.91-8.74,12.73,6.69.47,15,11.71,5.77,5.12-5.41-1.64-8.52,9.84-5.63,4.15,1.71-1.85,10.81,3.23,9.38,6-1.66,1.11-6.37,8.27-4.72,2.44-8.2.19-9.15,6.71-5.25,13.94,7.5,1.75,9.57,11.52.69,12.17,3,44.82-3.36,59.28-42.88,34.87-16.84.85,4.83,6.83,1.33.48,5.36,2.52,3.74,11.08-4.37L2303,1600l-6.63-4.32-12.67-1.54-13.2-12.17-5-7-13.69-13.63-4.48-2.82-10.46-10-4.81-7.91-9.47-12.8-4.44-11.89-6.79-4.54-14.22-13.17-3.2-5.48-6.94-3.31-8.66-7.42-4.75-5.18-.57-3.42-8-2.45L2143.68,1456l-9.33-8.43-4.95-7.19-1.42-7.12-2.23-1.84-9.71,1.1-4.95-1.14L2089,1431l-22.12,5-.7,2.35-11.82,5.65-3.2-.32-5.35,2.8-19.24,2-6.35-4.35-3.81-.45-4.49-4.43-4.47-9.07-3.07.49-20.05,6.49-2.54,2.6-13.12,8.11.78,4.27-4.35,2.4-.94,2.6-3,1-3.48,2-3.58-6.66-7.34-8.51-3.61-9.65,1.58-4.06,5.5-2.47,5.19.16,3.25-3.1-4-7.05,2.74-6.55.36-4.1-2.18-4.89,4.29-5.26,9.41-4.25,4.33-3.3,1.1-3.28-1.49-7.13.39-6.62,4.87-6.66,1.72-8.88,2.36-5,5.88-4.31.23-5.2-1.6-4.7-7.87-3.89-13.43.93-4.17-6.57-4.25-14.4-4.13-7.8-6.49-6.09-9.26-3.34-4.56-4.5-13.36-5Z" transform="translate(-396.03 0.13)"/>
        
        <path id="Kabupaten_Jayawijaya" data-name="Kabupaten Jayawijaya" class="cls-1" d="M1966.88,742.51l.39,3,7.74,5.62,6.77-3.49,5.29,6.11,6.28-2.38,12.39,12.28,22.3,6.31,2.23,4.12-14.72,2.1-8.64-3-4.21,9.74-15.54-1.26-15.29,7.19-10.33.58L1944,799.21l-10.28,1.12-12.47,7.32,3,11.61-3.39,11.37-19.09-4.23L1900.13,812l6.75-3.3.83-8.19,6.11-8.34,7-7-3-5.33-6.66-1.78-6.67.44,2.51-7.34,3.12-3.12,2.36-8.25V748.13l.27-8.5-19.13-.92-17.93-12.79-5.22-1,.14-7.38,16.83-2.51,19-.32,6.74-2.8,2.58,4.61,6.39-.45,8,3.69,9.34,8.14,9.94,2.15,7.37,7.32,4.24,2Z" transform="translate(-396.03 0.13)"/>
        
        <path id="Kabupaten_Jayapura" data-name="Kabupaten Jayapura" class="cls-1" d="M2152.6,476.86l8,8.5,6,3,3.08,4.53,2.65.9,4.13-2.34,2.8,4,3.77.26.89,2.4,8.71,3.74,4.71-5.32-3.08-4.59,4.77-.42,4.42,2.31,3.26-.29,3.88,2.91,3.81-.13,3.54,2.49,4.33-2.6,2.91,3.36,5.66-.41,3.17,1.45,1.77-2.4,5.12,2.55-2.85,8.45-9.26-2.67-5.11,10.55,6.27,4.41,6.52-1.57-.62,6L2233,538.37l6.34,4.12-6.34-4.12-13.05.85-17-5.56-3.85,6.55,2.19,3.24-3,6.39-3.62,8.46.58,32.16-1.15,20.72,1.77,4.21-8,7.05,3.06,2.28-2.57,7.74-.8,7.26-1.8,1.34,6.68,8.09,3.86,3.14-2.79,4.78,2.43,7-5,6.74,4.73,1.05,1.52,4.87-2.18.91,2.53,9.39,1.34,4.6-7.44,10.86,10.09,7.59-14.3,1.74-8.56-13.24-9.45,1.07-5.17,4.52-2.5,1.9-1.42-1-.76-.09-1.12.06-.64.07h-.16l-5.79-3.08-1.51,1-4-5.75-4,3.71-3.29-5.57-6.8,2.8-3.6-2.46,2.18-3-1.68-1.89-7.21,2.44-3.87-.57-5.2-6.17-2.88.94-6.18-3.53-3.73-.12-7.56-2.67-4.25-4.64-1.63,3.1-6,1-1-3.21-5.82,4.5-4.85-.79-1.7-2.89,4.88-4-3-1.81-5.86,5.79-2.7.74-6.42-3v-3.57l-5.37-6.67-2,.27-2.15-5.52,4.7-3.21,3.15-8-.08-3.3,2.84-4.94-2.67-3.9-2.63-14,.85-4.82,3.48-4.56-1.62-3.58-3.86-31.11-1.5-14.39-5.15-41.65-.3-9.09-1.42-10.81,58.43-8.42,31.79,8.75,23.65-10.25Z" transform="translate(-396.03 0.13)"/>
        
        <path id="Kabupaten_Paniai" data-name="Kabupaten Paniai" class="cls-1" d="M1674.32,757.79l-12.89.9L1636.29,776l-33.91-1.52-55-1.7-5.2-16.12-7.92-5.29-13.14.79-7.61,1.89-5.46-4.19-3.91-7.71-1.66-6.71,8.78-7.82,5.69-7.42,6.64-2.86,5.26-4.89,4.92-1.95-.66-6.43-.08-6.58,3-4,5.93-4.83,1.61-9.36.35-6.51-.58-7.14,9.58,3.83,6.76-5,10.54,9.44,2.89,2.67-3,4.36,4.79,7,9.92,3,8.12,6-2.76,3.09,2.4,12.79-1,8.62,4.24,8.06,15.42.14,18.88,7.33,22,10.49,12.85,4.63Z" transform="translate(-396.03 0.13)"/>
        
        <path id="Kabupaten_Puncak_Jaya" data-name="Kabupaten Puncak Jaya" class="cls-1" d="M1840.92,607.72l-7.86,7,.72,6.71-6.55,4-1.86,7.63-1.52,7.38L1823.6,654l1.45,14.13-8.86,7.09-3,4.11-2.17,5.11,5.47,4.33,0,10.51,2.28,21.76-9.35-.13-4,6.12-8,3.22-3.58,15.32-20.25-.89-2.29-9.86-3.4-4-.3-9.82-6.33-11.67-7-4.24-5.8-3-1.2-11.5-5-5-7.28-8-12.47-6.93-3.47-5.2-.69-5.2-4.85-11.09,8.88-12.33,9.63-3.47,8.73-13.84,9-.2,19.64,3.8,15.55.39,8.75-2.85,6-3,5.07-10.16,9.38-15.94,13.92,1.33,13.53,7.15Z" transform="translate(-396.03 0.13)"/>
        
        <path id="Kabupaten_Mimika" data-name="Kabupaten Mimika" class="cls-1" d="M1748.94,781.27l3,32,4.7,7.12,2.15,9.6,1.36,18.58,1,11.48.84,12.11-5.28,9.67-2.4,8.41-3.94,8.78-6.88.67-.22,5.64-2.34,7.48.8,4.3,5.58,6.09-1.38,3.08-5.79,8.17.69,3.27,3.85,3.79-3.91,1.5-4.82-.52-3.61,1.81-5.54-2.16-4.1,1.92-3.58-4.79-5.91-2.93-2.91,4.4-4.23-2.83-9.09-8.27-1.23-3.69-4.34-3.75-4.12,1.81-8.68-6.49-3-.39-4.43,4.38-5.4-5.62-6.11-2.23-3.62,2.1-5.61-5.69.35-3.35-5.78.7-3.34,2.27L1637,910l-8.61-7.46-1.13-4.15-8,5-6.1,2.39-6.78-4.23.27-3.33-4.86-1.07-4.54,1.33-6.38-4.7-3,.95-13.18-6.1-8.59-3.16-8.23-7-9.73-2.67-3.86-3.89-9.76-5.54-7.12-2.58-2.54,2.43-9.58-1.61-3.6-2.22-17.39-4.9-2.75-3.47-9.19-3.49-3.34-3-9.68-5.44-1.78-3.48-7.13-3.13-12.94-.44-11.88.9-5.89,1.25-3-1.32-17.31-2.77-12.42-4-8.63-1.45-11.56-.65-9.74,1.57-5.51-.36-16.1,3.77-15.74-9.45-2.46,0-8.88-5.3-2.5-3.08-15.28-8.12-3.89-6.92-10-4.16-4.69.08-4.59-2.1-5.06-3.21-1.91-3.54,1.34-2,5.9.38,2.8-2.37-.07-3.87,2.8-5.39,2.44-2.67,4.29-.21,7.61-3.54,2.17-4-.73-2.54,2.9-2.51,7.63-1.73,5.68-3.42,3.45-7.72h2.09l.56,2.75,3.73-1.53,9.22-.43,1.2,11.17,0,12.73,3.53,7,13.27,1.25,11.47,3.82,8.84-2.68,9.34,5.44,23,5.37,4.74-.28,3.55,2.05,5.11-.47,7.07-4.06,3.09,2.14,6.86,1.62,5.6-.87,4.52,2.74,15.36.92,7-.76,6.68,4.26,9.76-.66,6.29-2.06,5.9,3.41,5.46-3.12,4.94.86,10.76,8.69,2.32-5.54,10.84,1.92,1.8,3.75,6.23-1.16,2,1.7,5.41-1,3.49,2.51,6.54,1.31,6-1.16,2.4-2.48-4.75-6.67-.27-3.42-2.83-3.42-6.17-7-3.1-10.62,54.7,1.7,34.16,1.53,25.14-17.27,12.89-.89,11.41.72,8,23.3,21.37.68,6-.29Z" transform="translate(-396.03 0.13)"/>
        
        <path id="Kabupaten_Boven_Digoel" data-name="Kabupaten Boven Digoel" class="cls-1" d="M2275.18,1186.8l-1,8.78.84,7.39,8.11,3.29-4.79,7.73,2.84,5-34.87,16.84L2187,1278.72l-44.81,3.36-12.17-3-2.67-80.93-4.45-18.48-13.74-3.1-1.13-20.12-5.52-7.4,7.86-8.09,1.37-9.69-5.25-3.87-.34-5.93,2-4.44-1.15-8.28-2.36-43.63,10.12.62.64-6.57-10.82-9.64,1-10.13-9.83-76.9.7-6.34,5.79-7.87,11.29-11.89,38,10.11,8.06,1.41,13.79,2.42,56.4,7.85,31.57,4.44,26.28,4,10.43,1.11-.2,167.51-2,3.33-2.06,5.07-2.58,2.12,1.94,5-1.73,6-3.05-3.23-2.16,2.28,1.77,6.33,3.41,0,.2,3.74-3.14,0-1.59,4,1.63,3.7-6.52,3.74,2.62,4.78-4.32.61Z" transform="translate(-396.03 0.13)"/>
        
        <path id="Kabupaten_Mappi" data-name="Kabupaten Mappi" class="cls-1" d="M1923.8,1269l6.89,4.55-1.7,3.84-5.23-1.84-1.48-2.42Zm203.53-70.79,2.67,80.93-11.52-.69-1.75-9.57-13.94-7.5-6.71,5.25-.19,9.15-2.44,8.2-8.27,4.72-1.11,6.37-6,1.66-3.23-9.38,1.85-10.81-4.15-1.71-9.84,5.63,1.63,8.52-5.12,5.41-11.7-5.77-.47-15-12.73-6.69-7.91,8.74,6,6.45,9.48-.33-9,30.06-18.09-2.63-11.93-6.2-87-18,1.68-3.06,12.24,2,13.13-.16,4-4.32-.27-3.67-13-5.53-13.66-9.78L1915,1256l-11-7-5.46-9.77,2.35-5.51,8.4-4.4,3.86,1.75,4.08-3.23-.63-5.72-8.51-8.23-1.75-5,3.58-3.55,6.79-1-1.2-11.54,4.93-5.13-9-9.29,3.8-3.43,1.25-4.17,4.6-2.09,7.52,1.15,5.84-5.64,11.51.06,5.86-8-13.14-107.09,109.39-61.33,11.39-1.75,12-1.12,10.4-7.19,13.56-13.81,10.17,75.55-1,10.13,10.81,9.64-.63,6.57-10.12-.62,2.36,43.63,1.15,8.28-2,4.44.34,5.93,5.25,3.87-1.37,9.69-7.87,8.09,5.53,7.4,1.13,20.12,13.74,3.1Z" transform="translate(-396.03 0.13)"/>
        
        <path id="Kabupaten_Asmat" data-name="Kabupaten Asmat" class="cls-1" d="M1949,875.21l13.31-.19,13.17,1.8,17.25,14.62,28,18.5,34.14,11.2,21.93,5.73,36.81,9.56-11.29,11.89-5.79,7.87-1.85,9.65-12.75,11.85-10.4,7.19-23.42,2.87-109.39,61.33,13.14,107.09-5.86,8-11.51-.07-5.84,5.64-7.52-1.15-4.6,2.09-1.25,4.18-3.8,3.43-10.66-12.62-16.89-14.32-7.1-6.9-1.76-3.58,1.79-2.82-3.4-4.77-4.58-16.26,2-4-7.52-13.37-1.12-4.11-6.72-13.9-3.68-6.19-3.94-3-.57-8,4-2.26-.68-4.08-6.87-2.14-6.51.07-4.68-3.47-.57-8.24,2.53-1.58-1.56-3.65-5.77-.34-9,2.85-4.26-10.41-1.1-8.89,1.36-7.12,3.68-3.93,1.73-4.54-6.1-3.69-6.64-.8-9.27-9-4.1-5.39-8.39-8.81-5.88,2.78-4.86.83-7.87-3.06-2.89,2.22-3.85-3.46,3.68-9.24-10.22-9.75.26-3-4.94-2-2.3,1.08-4-2.69-8.76-3.09-1.09-5.34,3.61-1.82,4.82.52,3.91-1.49-3.85-3.79-.69-3.27,3.24-4.33,2.55-3.84,1.38-3.08-5.58-6.09-.8-4.3,2.34-7.48.22-5.64,6.13-1,4.69-8.49,2.4-8.41,5.28-9.67-.94-11.08-.94-12.51,14.47-1.85,13.54,4.69,12,2.49,24,4.92,4.22.41L1862,867l39.88,7.92,9.85,2.23,12.37.19,17.62-2.06Z" transform="translate(-396.03 0.13)"/>
        
        <path id="Kabupaten_Yahukimo" data-name="Kabupaten Yahukimo" class="cls-1" d="M2134.38,941.85l-57.62-15-21.93-5.73-34.14-11.2-28-18.49-17.25-14.62L1962.26,875l-13.31.2L1947,854.09l-3.87-7.06,2.53-9.42-1.64-38.4,17.51-9.82,10.33-.58,15.29-7.19,15.55,1.26,4.2-9.74,8.64,3,14.72-2.09,20.05-4.68,8.19-2.77,15.76-6.7,6.61-4.42,43.65-63,4.42-1.64,1.68,1.89-2.18,3,3.6,2.46,3.11-1.21Z" transform="translate(-396.03 0.13)"/>
        
        <path id="Kabupaten_Pegunungan_Bintang" data-name="Kabupaten Pegunungan Bintang" class="cls-1" d="M2298,715.62l.06,252.16-10.44-1.11-26.29-4-66.15-8.74-43.65-7.38-17.16-4.69.78-244.82,3.69-1.59,3.28,5.58,4-3.71,4,5.74,1.51-1,5.8,3.08,2.68,0,1.41,1,7.68-6.42,9.45-1.07,8.56,13.24,14.3-1.74,9,3.9,9.29,3.5,8.92-5,13,7.58,22.6-5.94,7.71,4.48,5.45-2.56Z" transform="translate(-396.03 0.13)"/>
        
        <path id="Kabupaten_Tolikara" data-name="Kabupaten Tolikara" class="cls-1" d="M1938.09,623l10.79,4.64,9.2,2.47,15,5.44,5.41,3.11,1.71-2.59,5,.67,1.42,4.52-2.29.49-1.21,4.13-5.4,7.14-8.19-2.47-18.86,9.1-.1,13.85-8.87,5-6.87-1.31-3.07,3.51-1.39,11.78-7.15,5.35-1.28,8.57-8.71,5.52-6.74,2.8-19,.32-16.79,1.71-6.45-2.2-10.18,1-6,4.08-17.28-1.27-5.21,4-6.7-1.3-2.28-21.76,0-10.51-5.47-4.33,2.16-5.11,3-4.11,8.86-7.09L1823.6,654l.25-13.56,3.38-15,6.55-4-.72-6.71,7.86-7,.81-7.67-13.53-7.15,1.44-7.88,11.2-3.12,10.84-8.64,11.92-1,5.7,9.24,5.14-6.86,15.45,4.69,14.75,6.11-2.4,34.48,7.32,12.38,13.4-5.82,4.71-10.1,10.19-.18Z" transform="translate(-396.03 0.13)"/>
        
        <path id="Kabupaten_Sarmi" data-name="Kabupaten Sarmi" class="cls-1" d="M1926.42,358.33l2.59,5.46-4.89-1-1.48-2.14ZM2046.58,666l-.67.19-3.43.56-1.72-2.75-8.55-1.95-2.08,2.42,3.07,2.41-7,3.48,0-4.8-3.23-.79-1.84,3.27-4.53-.53-1.39-4.59-3.27-3.79-3.11,2.67-6.19,2.44-1.14-3.48-3.32.73-4.83-2-2.15-5.83-3.13-.63-1-8.44-3.94,1.19,1.21-4.12,2.29-.49-1.42-4.52-5-.67-1.71,2.59-5.41-3.11-3.59-13.7,3.52-10.73,11.81-12.65-2.3-5.93,9.39-7.72-2.52-5.61-.5-4.73-56.86-30-15.82-7.75-8.13-4.6,16.51-27.73.46-9.08-20.66-26.49-7.87,1.4-5.74-1.72.37-2-4.35-1.21-3.15-3.19-5.31-1-2-2.84-3.43.39-.94-3.29-5.46.87-4.12-6.5-5-4.18-.41-8.51-5-3.17-2.45.29-2.2-3.23,1.67-5.15-4.35-3-4-9.3-8-3.26-1.54-6-1.1-4.76,1.91-7.81-.21-4.58,2.59-3.26-1.57-7.59,1.77-4.29-.75-7.08,16.93,8.28,16.46,6.44,19.37,5.34,22.94,4.6,8.6,3.71,10.83,10.17,8.42,10.48,12.89,6.76,4.72-2.49,15.7,3.61,5,3.51,15.5,5.63,3.49,3,7.34,3.49,9.78,6.41,17.73,5.87,12.61,6.07,16.76,10.88,7.46,3.83,9.61,2.72,10.79,7.31,7.31,3.84,9,3.41,11.88-.2,16.51-3.42,21.22-7.23,1.49,16.43-23.65,10.25-31.8-8.75-58.41,8.42,1.42,10.81.3,9.08,5.16,41.66,1.49,14.39,3.86,31.11,1.62,3.58-3.48,4.56-.85,4.82,2.64,13.95,2.67,3.91-2.84,4.93.07,3.31-3.14,8-4.71,3.21Z" transform="translate(-396.03 0.13)"/>
        <path id="Kabupaten_Keerom" data-name="Kabupaten Keerom" class="cls-1" d="M2297.87,558l.14,157.66-20.48.45-5.45,2.56-7.71-4.48-22.6,5.94-13-7.58-8.92,5-18.3-7.4-10.09-7.59,7.44-10.86-1.34-4.6-2.53-9.39,2.18-.91-1.52-4.86-4.73-1.06,5-6.74-2.43-7,2.79-4.78-3.86-3.14-6.68-8.09,1.8-1.34.8-7.26,2.57-7.74-3.07-2.27,8-7.06-1.77-4.21,1.15-20.72-.58-32.16,6.45-14-2.06-4.13,3.85-6.55,17,5.56,13.05-.85,6.34,4.12,5,.33,7.76-3.27,17.23,4.47,8.24,5.29,9.47,3.56Z" transform="translate(-396.03 0.13)"/>
        <path id="Kabupaten_Waropen" data-name="Kabupaten Waropen" class="cls-1" d="M1609.1,454.71l2.57,1.66,2.58,5.21,4.7,2.53,6,5.81,3.18,5.29-1.19,5.15,3.8,1.33-4.64,3.51.53,4,5.14,1.55,3.56,3.17,8.89,1.63,1.8-.92,1.15,6.81,12.07,6.59-.17,1.87,4.46,1.14,9.22,7.55,10,4.53L1685,530l-1.17,7.81,4.26,5.63L1682,551.1l3.77,2.65-.49,7.72,2.6,3.13,5.63.77,6.73,5.14-.85,4.11,1.77,6.81,6.81,6.21,10.09,8.32,14.49.86-6.43,4.86-11.48,3.12-4.35.31-2.49-2.5-5.34,1.11-4.9-3.56-7.21,4.7-10.08,2.23-10-.39-5.14,2.63-6.74,0-4.54,6.76-4.63.21-4.78,2-6.89-1.43-3.87,2.35-11.15.88,2.09-2.33-5.17-8.36-7.47,5.38-8,.69-4.62-1.31-7.81,7.35-6.87-1.2-8.52,6.22-6.12,2.67-5.44-1.28-4.65-8.42,2.49-12.45-2.21-6.59-5-3-7.27-.53-7.36-3.23L1529.38,592l-3.15-.65-5.25-1-4.35-1.05-8.06-5.73-5.75-5.06-7.54-1-7.47-1.77-8.37-3.3-5.41-5.88-9.88-1,2.27-10.19L1469,549l6.06-5.63,4-3.51,3.28.41,4.36-3.84,7.35-.57,4.86-3.89,7.1-.8,7.07-4.76,7.82-12.83,1.7-5.47-.43-6.15,3.16-9.31,7.2-5.51-1.45-15.7,9.9-9.68,5.22-2.4,5.9.79,9.89-1.24,3.8,3.59,1.75-2,3.49,1.22,4,5.59,7.34-.93,4.26,2.17,6.79-5.35,6.89,2.31,4.33-2,2.22-3.14,2.92,1.42,1-4.35Z" transform="translate(-396.03 0.13)"/>
        <path id="Kabupaten_Mamberamo_Raya" data-name="Kabupaten Mamberamo Raya" class="cls-1" d="M1833.81,364.81l.75,7.08-1.77,4.29,1.57,7.59-2.59,3.26.2,4.58-4.63,9.93-.41,5.66,1.38,8.57,12.36-2.35,4,9.3,4.34,3-1.67,5.15,2.2,3.23,2.46-.29,5,3.17.41,8.51,5,4.18,4.13,6.5,5.46-.87.93,3.29,3.43-.39,2.05,2.84,5.3,1,3.16,3.19,4.35,1.21-.38,2,5.75,1.72,7.86-1.4,20.66,26.49-.46,9.08-16.5,27.73,8.13,4.6,15.82,7.75,56.85,30,.51,4.73,2.52,5.61-9.39,7.72,2.3,5.93-11.81,12.65-3.52,10.73,3.59,13.7-6.39-2.24-8.65-3.2-9.2-2.47L1938.09,623l-.23-6.73-10.19.18-4.71,10.1-13.4,5.82L1902.24,620l1.12-16.34,1.28-18.14-14.75-6.12-15.45-4.68-5.14,6.86-5.7-9.24-11.92,1-10.84,8.63L1829.65,585l-1.46,7.88-13.91-1.33-9.38,15.94-5.08,10.16-14.78,5.8-15.55-.39-18-3.9-10.67.3-.91-2.7-15.13-4.33-4.25.94-5.94-8.59,11.48-3.12,6.43-4.86-14.49-.86-16.9-14.53-1.77-6.82.85-4.11-6.73-5.13-5.63-.77-2.6-3.13.49-7.72L1682,551.1l6.08-7.68-4.26-5.62L1685,530l-2.25-6.9-10-4.53-9.22-7.56-4.46-1.13.17-1.87-12.07-6.59-1.15-6.81-1.8.92-8.89-1.63-3.56-3.17-5.14-1.55-.53-4,4.64-3.52-3.8-1.32,1.19-5.15-3.18-5.29-6-5.81-4.7-2.54-2.58-5.2-2.57-1.66,5-.27-.23,3.31,6.33-3.17,6.16.5,2.23-4.65,3.12-1.68-.34-3,5.7,1.81,3.82-.6,9.55-5.06,8.36,2.09,8.51-2.85,5.79-4.46,4.27-1.11,1.73-2.52-7-7.29,4.39-3-5.74-7.62-4.18-.73-1.44-4.27-9.6-8.95.93-7.32,4.89-5.19,4.76-.2,5.79-3.66,8.75-.15.84-2.57,14.49-8,4.77-1.94,18.55-11.92.11-.94,22.11-8.64,7.7-5,11-3.4,3.2-2.87,4.75.85,11-3.31,8.77.43,1.6,1.2,5-2.28,6.12,12,3.53.2,3.53,4.72,6.15,4.8,8.24,4.24Z" transform="translate(-396.03 0.13)"/>
        <path id="Kabupaten_Nduga" data-name="Kabupaten Nduga" class="cls-1" d="M1904.54,778.5l6.67-.44,6.66,1.78,3,5.33-7.75,8.46-5.37,6.86-.83,8.19-6.75,3.3,1.66,14.42,19.09,4.23,3.39-11.37-3-11.61,12.47-7.32,10.28-1.12,1.64,38.4-2.53,9.42,3.87,7.06,1.94,21.12-7.26.11-17.61,2.07-12.38-.19-9.85-2.23L1862,867.05l-33.63-7.82-4.22-.4-24-4.93-12-2.48-13.54-4.7-14.47,1.85-.93-6.31-.43-12.27-2.15-9.6-5.08-7.8-2.6-31.32L1775.4,777l8.2,3.88,4.74-1.29,18.13-1.73,19.84-.43,6,.5,12.55,2.91,9.35,5.55,5.84.58,14-1.75,7.31,1.46,15.77.29,4.38-1.46Z" transform="translate(-396.03 0.13)"/>
        <path id="Kabupaten_Lanny_Jaya" data-name="Kabupaten Lanny Jaya" class="cls-1" d="M1904.54,778.5l-3,7-4.38,1.46-15.77-.29-7.3-1.46-14,1.75-5.85-.58-9.34-5.55-12.56-2.91-6-.5-19.84.43-18.12,1.73-4.75,1.29-8.2-3.88-26.46,4.32-1.89-11,11.7-5.53,4.29-2.45.6-5.87,10-11.69,20.25.89,3.58-15.32,8-3.22,4-6.12,9.35.13,6.7,1.3,5.21-4,17.28,1.27,6-4.08,10.18-1,6.45,2.2-.18,8.18,5.22,1,17.93,12.79,19.13.92-.28,20.16-2.35,8.25-3.12,3.12Z" transform="translate(-396.03 0.13)"/>
        <path id="Kabupaten_Mamberamo_Tengah" data-name="Kabupaten Mamberamo Tengah" class="cls-1" d="M2045.91,666.21l-.49,2.48L2039,683.54l-12,14.28-17,24-16.69,6.36-8.52,2.4L1974,734.13l-9.77,2.43-3.14,2.82-4.23-2-7.37-7.32-9.94-2.15-9.34-8.14-8-3.69-6.39.45-2.58-4.61,8.71-5.52,1.28-8.57,7.15-5.35,1.39-11.78,3.07-3.51,6.87,1.31,8.87-5,.1-13.85,18.86-9.1,8.19,2.47,5.4-7.14,3.93-1.2,1,8.44,3.14.63,2.14,5.83,4.83,2,3.32-.73,1.15,3.48,6.18-2.44,3.12-2.67,3.27,3.79,1.39,4.59,4.53.53,1.83-3.27,3.23.79.06,4.8,7-3.48-3.07-2.41,2.08-2.42,8.56,1.95,1.71,2.75Z" transform="translate(-396.03 0.13)"/>
        <path id="Kabupaten_Puncak" data-name="Kabupaten Puncak" class="cls-1" d="M1740.86,619.48l-8.74,13.84-9.63,3.47-8.87,12.34,4.85,11.09.69,5.19,3.46,5.2,12.48,6.93,12.28,13,1.2,11.5,12.79,7.28L1767.7,721l.3,9.82,3.4,4,2.29,9.86-10,11.69-.6,5.87-15.73,8.2,1.63,10.8-27.82.94-6,.29-21.37-.68-8-23.3-11.41-.72-.52-12.68-1.74-4.83-1.11-7.73-9.2-7.3-1.92-4.79-1.51-6.16.55-5.07-4.71-8.87.76-13.38-10.22-5.57-6.46-10.92-3.83-7.9-4.2-6.94-.84-8.25-2.36-6.06-5.61-11.1.39-7.17.77-3,11.15-.89,3.87-2.34,6.89,1.42,4.78-2,4.63-.21,4.55-6.76,6.74,0,5.13-2.63,10,.39,10.08-2.23,7.21-4.7,4.91,3.56,5.33-1.11,2.49,2.5,4.35-.31,4,5.36,2,3.23,4.25-.93,15.13,4.32Z" transform="translate(-396.03 0.13)"/>
        <path id="Kabupaten_Dogiyai" data-name="Kabupaten Dogiyai" class="cls-1" d="M1513.56,754l-3.59,7.07-9.44,14-9.51,9.16-.81,8.06.26,1.82-5.84,2.82-10.21-.1-6.68-4.26-7,.76-15.36-.92-4.52-2.74-5.6.87-6.86-1.62-3.09-2.14-7.07,4.06-5.11.47-3.55-2.05-7.74-2.18-20-2.91-9.34-5.44-8.84,2.68-11.47-3.82L1339,776.38l-3.53-7,0-12.73-1.19-11.18V739l-3.12-15,6.62-1,13.08,5.81,8.38,6.06,14.24-1.66,7.2,4.86,6.85,1.26,8.24,1.69,5.83,3.06,3.91-2.76,4.71-1.38,3.66-.59,11.46-6.26,2.75-9.45,8-2.85.85-11.23-2.59-9,1-10.48,7.3-7.35,6.22-5.85.78-5.33,13.19-.17,9.66-4.75,9.74-10.33,5.42-2.91.5,6.25,2,4.22,6,4.35,6.13,4.46,7.74,5.5,2.83,6.48,5.87,5.81,5.48-2.48,8.93.84,2.85,4.51-3,4,.74,13-4.92,1.95-5.26,4.89-6.64,2.86-5.69,7.41-8.78,7.83.1,2.77,1.45,3.83,4,7.82Z" transform="translate(-396.03 0.13)"/>
        <path id="Kabupaten_Intan_Jaya" data-name="Kabupaten Intan Jaya" class="cls-1" d="M1621.4,630.25l5.61,11.09,2.36,6.07.84,8.25,4.2,6.94,3.83,7.9,6.46,10.92,10.22,5.57-.76,13.38,4.71,8.87,1,11.23,1.92,4.79,9.2,7.3,2.85,12.56.52,12.67-9.25-5.78-12.85-4.63L1641,742l-29.73-12.47-15.42-.14-4.24-8.06,1-8.62-2.4-12.79,2.76-3.09-8.12-6-9.92-3-4.79-7,3-4.36-13.43-12.11-6.76,5-9.58-3.83.58,7.14.15,7.25-2.11,8.62-5.93,4.83-2.85-4.51-8.93-.84-5.48,2.48-5.87-5.81-2.83-6.48-19.89-14.31-2-4.22-.5-6.25,9.28-6.35,6.59-1.33,3-20.26,4.08-4,2.6-9.06-4.56-7.16,3.3-3.7-5.75-9.16-3.5-8.69.13-5.21,5.75,5.06,8.06,5.73,24,4.39,7.36,3.23,7.27.53,5,3,2.21,6.58L1560,619.45l4.65,8.42,5.44,1.28,6.12-2.67,8.52-6.22,6.87,1.2,7.81-7.36,4.62,1.31,8-.68,7.47-5.38,5.17,8.36-2.86,5.37Z" transform="translate(-396.03 0.13)"/>
        <path id="Kabupaten_Deiyai" data-name="Kabupaten Deiyai" class="cls-1" d="M1547.43,772.73l3.1,10.62,6.17,7,2.83,3.42.27,3.42,4.75,6.68-2.4,2.48-6,1.16-6.54-1.31-3.49-2.52-5.41,1-2-1.71-6.23,1.16-1.8-3.74-10.85-1.92-2.31,5.53-10.76-8.68-4.94-.86-5.46,3.12-5.9-3.41-.26-1.83.81-8.05,9.51-9.16,5.2-9.44,7.83-11.68,7.61-1.89,13.14-.79,7.92,5.28Z" transform="translate(-396.03 0.13)"/>
        <path id="Kota_Jayapura" data-name="Kota Jayapura" class="cls-1" d="M2297.87,558l-10.34-4.71-9.92-3.94-8.24-5.29-17.23-4.47-7.76,3.27-5-.33-6.34-4.12,2.81-12.42.62-6-6.52,1.57-6.27-4.41,5.11-10.55,9.26,2.67,2.85-8.45,8.88,3.7,5.4,3.28,2.56,3.94-5.7,3.6,2,2.07-5,6.34,2.13,2.69,3.29.33,5.82-.67,5.13-2.26,7.72-1.22,12.19,3.35,7-2.13,5.25-1.58Z" transform="translate(-396.03 0.13)"/>
        <path id="Kabupaten_Yalimo" data-name="Kabupaten Yalimo" class="cls-1" d="M2117.87,692.74l3.87.57,2.79-.8-43.65,63-6.29,4.41-10.85,5.76-5.23,1-8.19,2.76-20.05,4.68-2.23-4.12-22.3-6.31-12.39-12.28-6.28,2.38-5.29-6.11L1975,751.1l-7.74-5.62-.39-3-5.8-3.13,3.14-2.82,9.77-2.43,35.94-12.35,17-24,12-14.28,6.45-14.85.48-2.48.68-.19,2-.28,5.37,6.68,0,3.56,6.41,3,2.7-.74,5.86-5.79,3,1.8-4.87,4,1.7,2.89,4.85.8,5.82-4.5,1,3.21,6-1,1.62-3.1,4.25,4.64,7.56,2.67,3.73.12,6.18,3.53,2.88-1Z" transform="translate(-396.03 0.13)"/>
    </g>
    <g id="Papua_Barat" data-name="Papua Barat">
        <path id="path910" class="cls-2" d="M553.63,460.29l10.61,1.87,0,1L553.92,462Zm-27.77-4.42,4.69,2.92-2.66,2.34Zm26-11.27-1.06,2.33L543.63,448l.32-2.23ZM428.73,390.3l1.45,6.41-1.68.5-3.33-6.34Zm101.93-14,1-1.38,9.64-2.08,2.85-2.55L549,372l-1.91,6.57-2.71,1.88,4.32,4.73,7.36,3.48.7,4,2.81,3.47-5.81,11.74-2.88-.57-6,4.4.68,2.82,5.47,2.93,6.22-.36,2.26,5.05-4.71,1.15,4.95,5.53-11.16,1.91-.22-5.6-8.55-3.78-2.47,4.3-4.76,1.67L529,434.45,517.87,436l-4.17-1.53-6.42,1.34-4-1.83.38-2.63-5.34-1.4-9.62-.35-4.33-3.24-3.8,1.91-9.51-5.91-8.37-2.15-7.25-5.44-3.58-.64-5-4.6-5.22-2-1-3,3.37-4.18,19.71-5.47,7-6.14,12-2.34,5.44-4.23,8.72-3,5.72,1,2.59-2.31,7.62.93,5.86-.52L529,380.06Zm-131.9-85-2.6-1.11,3.14-3.64,2.29,2.87Zm46.92-6.82L443.15,289l-4.09,3-2.63-3.16,3.1-3.56Zm22.95-.33,1.12,1.26,13.44,1.43L477.94,291l-4.15.24-6,5.23-8.63,3.6-1.71-1.32,5.37-4.17,5-.9.59-2.76-8.35,3-6.75-1.34-6.36,2.65-3.57-4.11,2.11-2.65,10.49-3.16,6.63-.73,2.11-2.06Zm196.79-10.27-1-4.62,3-8.37,8.14-.75.68,3.35-3,1.81,1.65,4.44-3,3.38ZM655.87,293l-4.14-2.37-6.49-1.11-4.54,1.33L638.46,294l-7.37-.51-4.21,1.25-5.31-4.41-5.85-2.15-6.17,1-1.4,2.41.35-3.87-6.87-5.26L599,279l2.23-2.66,4.1.37-6.67-13.59-6.53-4.95-.2-4,13.87-2.75,3.32-2.17,8.28.07,1-2.51,8.11-3.15,9.36.36,5.48,7.25,4.31-.9,3.47-2.94,1.79,1.09,6-2.22,2.85,2.69,2.95,8.6L662.2,262l3.49.44-1.91,5.23L663,276.8l-2.49,4.32-1.29,10.15Zm-35-70.67,3.43.71,10.74-.8,4.64,3L638,227.61l-4.35-1.15L628,230.12l.65,6.49-6.81,2.53L608,240.34l-3.82,2.13-10.5,2.8-18.52,2.07-3.18-3.5-4.6,1.84-4.79-1.2L555.54,248l-1.44-1.8,8.15-5-1.58-7.2,5.46-2.76,8.52,3.35,3.08-.59,3.76-4.61,6.54,1.55,3.2-3.15,2.76,3.71,4.86-2.63,9.13,2.52,3.59-1.79,1.91,1.42,3.33-3.3,3.18-.48ZM589.35,164l4.61.46,8.11,6.16L596.29,181l-5.38,2.55-5.68,0,.45-9.48-5.82.31.29,4-3.34,3.18-6.3-2.68,0-2-6.93-.36.75-6.1,2.87-2.18L571,170.1l2.24,4.36,4.47-2,.65-4.15L585,165l3.66,1.11Zm-119.74-2.22,4.86,2.87-3.41,4.12.55,4.64-2.51,3.43-4.21.17-3.38-6.39,1.6-5.64Zm98.58-15.67,3.82.55-.32,3.76-3.87.18Zm-42.51-1.69-.19,5.05-5.28-2.78.93-3.49Zm67.62-29.87-2.36,3L601.57,129l4.21,6.15,3.72,9.23,3.44-.36,5.08,3.07,5-2.67,4.26,3.65,7.64,1,3.61-1.64,2.44,6.84.14,5.52-2.9,2.49-5.48,1.76-1.18,2.56-4.29-.28-9.42,3.7-10.94-.83-2.67-4-1.12-5.93-3.21-6.67,2.55-2.42-.15-3.49L598,144.76l-6.08,3.11-4.25-1-3.87,2.24-2.68,5.7,3,4.58-4.26,5.18-.25,2.58-3.6-.4,2.51-5-1.5-3.05-.23-8.3L575.58,147l-4-1.71,2.44-6.05-2.42-2.68-8.75,2.5-2.34,4.59-3.23-4.5-5.21,1.64-6.24-.69-1-1.88-6.29,1.16-4.84-5.8-6.2-.21-5.11-1.71.68-2.17,8.3,2.5,10.51.17,2.27-2.74,3.4.35-.43,5.65,4.76-1.62L554.5,130l5.25-2.35-5-6.63L549,124l-2.89-3.2-3.52,6.37-6.7-2.26.15-4.35-3.57-.37-.56-5,4.47-2.53,8,2.49,4.38-.36-.24-5.43,2.43-1.46,4.25,4.72,3.92-1,4.36-3.84,4.55.69.28-2.12,5.84-.58,2.5,2.09,7.59-5.39,6.43,3.39.68-1.53,15.55-4.17-.21,3.85,6.82.59L615,102l-3.47-2.11,3-2.34,6.6-.56,10.69,1.51,10.54,4.43,4.79,2.92,9.92-3.47,7.41,5.74,12.91,1.68,6.26,5.12.25,2.91,9.56,1,1.84,2.38,5.44,1.71,3,7.92-3.32,2,.39,3.65,7.24,8.39-5.24,1.48-1.07,3.11-5.07,4.38-4.1-.71,1.85,5.08-2.78,1.15-5.39-2.73-2.19-3.1-6.33-2.53-9.08-1.14-6.24,1.11-3,3.13-7.86,1.63-8.92-1.93-3.91-7.35-3.12.15,0-3.56-6-7.76-4.31,2-6.79-.7-1.64-3,.93-5.73-2.87-5.91-3.53.42-3.85-2.26-5.91-11.83L593,110.09l-4.68-1.32-1.82,2ZM505.84,96.3l1.84,3.82,4.35,3.19-.91,7.33-5.68.66-.59-3.88-2.4-.52.1-4.65Zm135.05.78-1.5-3,2.07-1.87,4.63,2.16Zm23.16-63.33-1.41,4.11-5.49-5L660,30.09ZM688.64,4.29,682,2.15,682.79,0l5.77,2.32Z" transform="translate(-396.03 0.13)"/>
        <path id="path1310-8-7" class="cls-3" d="M1026.08,291.36l1.46-7.44-2.63-4.93.73-9.16L1041.17,253l-4.72-7.76,1.89-4.42,4.68,1.91,10.15,9.6,1.52,14.27,19.8,6.06,20.66-12.86,13.68,9.49,8.77.95,9.93,6.12,4.6-2.68,7.09,19.26-6.48-.68-1.47,1.58,4.51,4.51,7.66,8,5.67,6.09,1.36,6.93.63,8.5,2.94,3-5.25,2.41-8.81,3.05-17.74,16.47-6.66,17.81-11.6-8.77-4.55,1.12-5.08-4.26-4.94-1.33-14.82,2.55-1.86-9.16,18-30.21-17.18-27.27-21.15-1.58-12.76,4.57Z" transform="translate(-396.03 0.13)"/>
        <path id="path896-1-8-6" class="cls-1" d="M924.14,657.06l5.52,3.65.64,3.69,6.06,6L936,674.9l-3.16.89-3.89-3.65.53-6.38-7.34-3.56-1.52-2.51Zm-33.23-49.63,7.65,2L895.72,613l-3.14-1.67Zm5.47-77.36,2.87-.27,1.88,3-7.87,3-1.69-3.3,3.06-3.73ZM1058.6,600l8.94-.75-5.15,12.65-2.41,25.8-12,10.92-45.11,31.85-45.46,46.9-6.78,7.59-3.93-8.34-.08-4.87-4.07-7-4.12-10.85-1.16-7.5,3.77-1.61,2.48,1.68,10.4.1,10.56,1.17,2.28-10.85,2.53-5.18-4-4.47-2.13-5.72-7-2.19-4.28-4.44.81-1.87-3.44-12.31,2.68-2.5,2.29-5.57-3.85-3.4v-3.87l-5.49-.87-3.76,2.79-3.66.32.17,9.2-2.16.64-6.75-2.75-4.27-4.15-1.58-4.87-7.21-6.16-.36-1.92h6.92l1.51-3.62-2.1-3.28-3.62.3L908.65,616l.53-7.19-7.11-5-6.34-7-14.12-8.14-13.48-9-15-1.35-8.28.8-4,2.41L836.59,580l-.17,2.9-5.32,1.5-1.86-4.26.83-2.93-2.59-1.49L823.22,578l-6.13-7.58,5-.45-1.47-3.57,1.75-2.17-5.14-2,2.88-2.68,5.41-1.46.83-2.88-2.92-2.36-5.93,1.53-.7-3.79,4.21-3.17,7.63-1.69,4.45-3.28,7.11,2.34,5-2.54-6.08-3.22,1.29-3.61,6.58-.31,2.47-1.43,26.16,2L882,539.3l7.43-1.65,2.84,5.43,2.29-3.13,4.92-2.12,7.42,2.19,7.65.51,8.12,5.16,5.39,7.37,9.1,1.3,5.76-4.59,5.59-1.7,20.85-20.43,6.52,7,12.11,3.84,14.22,6.27,9,8.71,6.75,8.45-4.77,5.72-5.84,6.19,16.49,10.15,11.69,1.3,3.75-3.35,5.44,4,3.69,9.09Z" transform="translate(-396.03 0.13)"/>
        <path id="path898-7-7-6" class="cls-1" d="M1141.85,551.75l26.32,3.59,11.54,13.94,2.33,5.46,5.69,4.58,17.86,24.5-.52,9.53,4.62,10.17,3.74,14.68,4.83,13.62,4.88,7.58,3.66,11.81,7.29,10.14,7.1,4.66,4.8-.09,3.2,1.56,11.64-.1,8.25-6.26,10.05-5.06,7.17-1.86,2.12,9.95,4.51,10.32L1311.45,707l9.7,2.25,7.32,5,2.45,7.4,1.61,11.87,1.73,5.57v6.42l-9.22.44-3.73,1.52-.56-2.74h-2.09l-1,2.81-2.15,4.47-6,3.85-7.63,1.74-2.9,2.51.73,2.53-2.17,4-7.61,3.54-4.29.22-2.44,2.67-2.8,5.38.07,3.88-2.8,2.37-5.9-.38-1.34,2-6.74.64-.24-5.83-.85-4.54-4.39-.29-4.38-.55-3.47-.56.32-5.21,2.55-2.13,8.81-1.37-6.27-5.59.54-5.34-1.49-3.54,4.15-2.35,6.83-1.52,6.14-4.3,11.68,3.33,4-.42,1.76,4.06,8.82,1.63,4.16-.62.75-4.66-6.69,1.51-.25-3.83-4.17-1-1.53,2.82-2.71-1.68-8.6-.75-7.48-3.31-3.9,3.86-5.13-3.16-12.91,5.12-3.48,7.94-5.26.15-6.82,6.46-3.48.85-1.19-4.59-4.93-1.88.53-6-6-8.08-4.91.6-10-4.77,1.73,8.76-2.05,3-4.06.13-6.51-4.89-1.49,2.61,3.16,1.43,6.78,9.93-2.9,4-4.42-.22.22-2.88-5-6.33-10.46-4.07-7.32-10.62-4.6,1.22-1.23-3.1,5.14-2.37,7.38-6.52-2.9-3.11-.33-5.79-6.55-4.4-3.52.32-1.74,2.89,2.88,3.58-7.88,5.11-3.34-2-1.57-4.17-5.91,4.08-7.06,8.91-4.52-4.93-3.39-8.15.78-4.77-1.77-8.58-3.86-5.19-6.64-5.56-1.14-13-2.88,1.53-4.36,5.62-1,6.67,5.52,12.39-.86,2-6.91-7.49-3.43-5.88-9.83,4.14.61-5.77,2.23-4.83-3.73-7.88-4.8-5.79-1.4-4.2-3.52-2.05,1.82-6.11,6.87-2.24,3.21-5.49-4.24-13-.37-15.7,5.67-3.52,2.24-4.65,3.68-1.42,4.78.79,1.54-5.25-.68-4.86,5.07.68,4.7-6.27-.79-7.58,3.07-1.93,2.87,5.55,2.11-1.85-2.48-3.11-1.17-9.07-6,5.13-3.94,1.58.15,2.46-5-1-4.7,1.76-10.83,14.25-3.2.41,2.8,15.85-3.1,2.8,2.57,11.71-1.53,3.48,1.47,2.57-.86,6.17-5,6.12-4.17-.52-3.86,2.63-4.58.22-1.61,3.69,8.6,13.25-2.39,6.47-5.32,1.85-4.79,3.53-2.94-2.07-2.72-6.07-5.39-1.82-3.92-5.78-2.16,3,8.65,5.65,2.43-.43,1.82,4.21-3.36,3.25,2.57,3.51-6.88,8.46-6.15,3-2.62,6.25,3.09,10.89,6.62,4.31,1.09,5.06-9.39,3.78.31,4.11L1034.52,757l-12.11-2.35-4.09,1.19-3.72,4.29-3.7,1.1-3.42,5.4-3.15,1.74-9-1.14-3,.62-10.46-2.51-6.11,3.22-3.41,7.11L969,773.29l-4.66.38L959.48,770l1.91-5.39-4.58-6.1-.34-8.81-4-.26-1.79-4.16,2.89-1.15-2.9-9.23,54.61-56.66,23.12-16.41L1048,648.6l12-10.92,2.41-25.8,5.15-12.65,12.91-10.66,10.11-13.17,14.56-12,.38-8.33,13.21-3.27,5,3.35,10.89,2.62Zm-32.63,47.76,1.47.14,2.8,6.14-3.57,1.08-1.79-3.27Zm42.53,125.55,3.14,1.74-1.26,2.68-5.7,1-.54-2.66Zm11.33,16.09,10.78,10.79.76,4.49-14.06-4.23-3.36-6.81.38-3.22Zm98.08,3.51,2.29,2.68-3.7,1.38-1.9-2.66Zm-50.29,8.08,8.29,5-1.44,1.73-8.22,1.27,0-7.87Zm-21.19,8.62-5.13-1.68-.39-4.61,5.13,3Zm-147.41,11.82,1.65,3.9,9.37,8.7,8.87,2.68.79,5.08-3.13,3.12-8.1-1.55-3.62-5.3-4.41-.55-.41-2.85-3.43-1.66-2.54-4.28,2.56-9.54Z" transform="translate(-396.03 0.13)"/>
        <path id="path900-7-8-1" class="cls-1" d="M1185.15,383.19l-.62,5.58-3.62,3.82,1,5-3.4,11.29-3.21,2.94-6.25-2.12,1.74-2.49.13-9.69,4.2-4,4.76-8.32,0-2.68Zm67.54,163.91-11.84,3,2.75,21.24,3.24,11.54,12.47,12.81,7.62,20.58,10.06,13,.38,9.88,5.82,13.25,3.11,21.76-7.17,1.86-10.05,5.06-8.25,6.26-11.64.1-3.2-1.56-4.8.09-7.1-4.66-7.29-10.14-3.66-11.81-4.88-7.58-4.83-13.62-3.74-14.68-4.62-10.17.36-10,.51-12.24-1.82-10.56.48-9.27-4.43-14.2-12.76-7.69L1181,534.9l-8.84-2.11-4.13-6.86-3.76-1,2.43-14.07-4.43-5.93-3.6-8.81-1.58-9,.84-16.61-.81-13.8L1153,423.37l13-2-.58,20.58v4.94l2.44,4.51,2,.08,1.37,7.06-2,4.91,2.24,2.58,2,11.14,1.8,1.79.36,5.28,4.3,4.6,2.16,6.67,2.49.38,7.56,7.07,7.31,9.88-.08,3,3.34,1.27-1.21,4.77,4.44,6.82,2,8.54,4,6,2.34,6-.56,3.43,6.47,7.81-.46,5.23,1.93,2.9,6.46,0,2.87-5,1.46-6.54-3.09-7.18,1-2.95-2.25-3.39-.2-8.7-3-2.35-.65-7.31-2-1.65,1.73-10.17,10.52-11.45,5.39-.61,4.38,2.43,4.22-1.84,4,10.76,0,10.06Zm-38.17-114.44-4.74,6.51,1.24,2.33-5,9.68-2.36,1.82-2-5.16-.15-4.68-3.73-2.16,8.37-15.66,7.07.32Zm26.35,51.07.89,5.17-2.87,4.49,2.54,1.42-2,3.94-5.74-6.37-2.42-.06-.55-6.16,7.68.67Z" transform="translate(-396.03 0.13)"/>
        <path id="path902-6-6-9" class="cls-1" d="M1090.69,506.78l3.43,1.35,2.07,4.78-2.47,2.15-3.27-3.1Zm-53-11.39,4.76,4.23,1.2,7.89-5.27-3.62-3.67-5.76Zm24.42-3.55,7.15,5.55,7.84,2,2.56,6.35-4,3.82-5.18-1.67-1.08-2.15-6.28-2.91-2-4.78-3.73-4.34,1.33-2.35Zm45.39-25.74-5,.17-6.92,3.36-.12-2,11.88-6.54Zm-.55-10.28-1.23,3.95-6.82,1.61,4.28-6.73Zm8.44,2.67-2.74-3.15L1118,451l3.76-1.35.92,7.1Zm14.47-10.64-1.3-3.38,3.86-1.05,2.23,1.79Zm-2.69,1-5-1.67,1.27-4.88,4.32,2.06Zm14.67-25.2,11.2-.25,4.14,33.31.81,13.8-.84,16.61,1.58,9,3.6,8.82,4.43,5.93-2.43,14.07,3.76,1,4.13,6.86,8.84,2.11,6.4,14.48,12.76,7.69,4.43,14.2-.48,9.27,1.82,10.56-.35,12.72-8.38-10.24-9.48-14.26-5.69-4.58-2.33-5.46-11.54-13.94-26.32-3.59-7.25,6-10.89-2.62-5-3.35-13.21,3.27-.38,8.33-14.56,12-10.11,13.17-12.91,10.66-8.94.75-10.2-5-3.69-9.09-5.44-4-3.75,3.35-11.69-1.3-16.49-10.15L1018,561.88l-6.75-8.45-9-8.71-14.22-6.27-12.11-3.84-6.52-7,20.08-19.77,13.53-10,11.41-1.18,2.94-2.86,12.26,3.58,4.92,2.66,4.36,5.4,6.26,4.89.44,5.52,3.42.3,3.76-7,3.1-.45,1.54,9.21,2.81-1.31-1-4.71,2.37-2.69,5.89,11.78,4.73-4.7,4,.46,3.06,2.5,8.7-5.52,7.31,5.51,3.28-1.37-.8-7.69.95-1.85,14.41,2.51.45-5.09-7.23-2.49-2.51-4.87,2.64-3.2,6.63-.2,8.44-2.32,4.83-3.39,8.24,1.8h6.41l.21-2.24-9.2-.15-5.21-2.54-3.22-5.6,4.41-6.05-2.68-3-5.62,2.4-3.8-1.58-5.1-4.95.31-3.23,13.41-5.51,3.72-8.53,4.22-.82,4.55-6-1.45-2.81-7.43,3.16-4.09-2.27-2,1L1118,448.8l-5.91,1.82-4.49,3-5.22-.84-4.3,5.68-3.8-.39-7.91,5.85-2-2.58-4.09,1.65-3.41-2.09-2.93,2.43-5.29,1.38-3.24-1.11-12.6-.69-3-3.16-5.31-.44L1037,461l-5-.36-3.52-3.24-8.34,3.69-1.56-2.56-7.29-.87-4.18.92-5.89,4.36-8.33.71-7.81,2.9-2.87,3.67-6.47,3.67L972,471.42l-5.52.37-5.77-4.93-5-1.63-5.51.33L942.89,468l-10.74,5.77-7.77-4.44,6.44-9.76-1.55-9.89-3.57-1.72,4-13.73-10.75-12.84,9.13-12,.14-7.56-6.22-1-1.71-19.69,5.43-20.1-5.39-12.08L934,341.75l12.27,11.5L966,342.44l4.42-7.24-.16-9.19,7.39-5,8.68-9.16,16.93-10.05,7.59-2,7.27.81,2.18-4.87-1-5.57,6.76,1.27,13.54,4.93,12.76-4.57,21.15,1.58,17.18,27.27-18,30.21,1.86,9.16,14.81-2.55,4.95,1.33,5.07,4.26,4.56-1.12,4.58,3.54,7,5.23,8.36,5.4,5.63,15.58-8,6.26-4.35-2.23,4.3,20.76,13.29.05L1137,418Z" transform="translate(-396.03 0.13)"/>
        <path id="path904-5-0-3" class="cls-1" d="M1027.54,283.92l-1.46,7.44-6.76-1.27,1,5.57-2.18,4.87-7.27-.81-7.59,2-16.93,10.05L977.65,321l-1.74-8.63-14.74-6.5-9.81-11.25-3.45-6.29-14.17-5.17-10,4.88-12.78-4.8-.8-8.94,5.51-2.69L906.51,250l2.44-7.78,12.42-1.81,22-1.69,2.85-15.11L936.84,221,941,210l3.75-5.11,13,.38,8.4-3.8-3.69-6.7,4.62-16,5.53-2.51,7.26.68,5.77,4,9.45.36,2.4,4.67,4.41,1.26,3.61-1.57,5.68,6.79,7.7,2.54,7.64,8.29,2.92,1.65,5.21,6.27,8.15,4.11,3,2.66,4.75-.55,13,.81,5.22,1.07,6.51-1.64,1.08-2.18,5.09,1.65,5.86.09,12.49,2.32,4.49-4.55,8.8.92,3.4,3.27,10.45-5.42,8.61,3,2.71-3.09,3.84,1,5,8.71,6.17,5,6.81,1.7,3.65,4.76,5.27,3.55-2,2.64-9.94-.6-3.53,8.33-3.66.38-1.72,4.63,5.87,7.5,3.17,1.92,1.62,4-.5,4.18,5.38,7.19,11,12.86-6.25,3.79L1139.22,293l-7.09-19.26-4.6,2.68-9.93-6.12-8.77-.95-13.68-9.49-20.66,12.86-19.8-6.06-1.52-14.27-10.15-9.6-4.68-1.91-1.89,4.42,4.72,7.76-15.53,16.82-.73,9.16Z" transform="translate(-396.03 0.13)"/>
        <path id="path906-3-4-2" class="cls-1" d="M787.33,276.24l.27-9.05,12.93-10,5.62,2.45,1.92,8.06,18.08,2.09,5.7,5.4-2.15,42.61,7.11.33,14.38,2.42,3.06-6.81L867.71,321l6.54,8.32,3.94,7.1-4.84,3.41,1.31,11.85-6.92,4.4-4.36,13.26-6.32,8.62,4.34,6.48,2.85,9.85,30.07.17,7.94,1.28,26,6.08-.14,7.56-9.13,12,10.75,12.84-4,13.73,3.57,1.72,1.55,9.89-6.44,9.76-5.88-3L914,455.71l-7.91,1.23-7.41,2.34-11.28,5.21-10,5.51-8.48,1.81-4.6-4-5.8-8.52-11.76-9.43-6.15.08-12.88-9.06-3.1-3.19,1.58-3.38,6-4.22-2.69-2.4-5.83,1.82-5.09-5.79-5.22-1.87,2-8.11-5.22-.9-4.5-6.26-1-3.39,4.25-2.53-4.6-5.67,5.89-4-.34-1.82,6.12-5.73,1.93.88,3.26-7.72-7.58.22L802,379.36l-4-20.21L792.3,355,782.9,360l-1.59-5.38,3.12-6.39-1.8-7.65,5.13-1.9-2.39-7.81,3.72-15.5-8.27.36-4.2-10,6.06-7.4,11.49-.45.83-13.73Z" transform="translate(-396.03 0.13)"/>
        <path id="path908-5-0-7" class="cls-1" d="M655,304.43l-.78,3.43-5.64,11.53-5.34-.3-2.73-3.61L635.32,314l-11-5.58-8-5.89-2.86,1-3.89-6.53.94-3.83-2.34-1.57,1.4-2.41-5-8.31-3.21-3.35,5.76-4.34,7.63-1.25,27,8.23,5.5,3.71,10.5,5.4,2.78,9.57Zm153-36.77-1.92-8.06-5.62-2.45-12.93,10-.27,9.05,7.67,7.93-.83,13.73-11.49.45-6.06,7.4,4.2,10,8.27-.36-3.72,15.5,2.39,7.81-5.13,1.9,1.8,7.65-3.12,6.39-10.17,1.91-10.21-3.26-13.21-4.5L732.26,341l-2.3,3.21-4.82,1.56-7.07-5.63-3.25-4.94,4.57-1.94-2.82-4.38-3.24-.64-1.28-6.57-2.25-.78-6.23,7.87,4.32,7-3.83,6.19-11,3.74-6.18,3.61L683,341.74l-4-3.67h-5.09l-6.55-3.27-16.45,2.59-7.41-2-2.41-2.06,5-6.38,5.19-2.49,2.61-9.22,5.65-10.68,6.23-4.18,6.93,1.35,7.94-3.11,9.65-21-.39-4.38,4.67-11.92,2.76-.7-1.31-5,5.75-1.4L704,251.9l20.22,2.35,7.79-4.47-5.26-11.56-9.69-4,1.29-2.47-.45-6.77,2.1-2.82,9.11-1.58,5.08-2.67,5.66-.64.72,5.44,6.93-2.88,7.42-1.85,10.26.28,9.89-3.05,13.29-1.95,9.45-5.49,4.38-5.13.38-3.6,5.85-3.8,10-6.66L826,201.7l-2,3.57,2,5.45,12,4,11.11,14.17-9.22,4.3-.47,1.84-2.7,2.42,0,3.88,7.88,1.67,7.58,5,.7,5.33L842.86,258l-8.42,8.46-2.59,8.68-5.7-5.41Z" transform="translate(-396.03 0.13)"/>
        <path id="path912-3-8-6" class="cls-1" d="M828.82,180.91l-.28-3.78,5.48-4.66,6.75-2.95,2.78-3.46,5.09-2.6,8.43-1.44,2.19-3.46,10.45.4,3.83-.71,3-2.94,3.25.63,4.45-3.12,3.5-.15,12,2.41,3.74-.78,14.11,1.52,9.65,1.16,6.33-.67,11.29,5.94L965.28,173l7.27-1.51,0,4.7-5.53,2.5-4.62,16.06,3.69,6.7-8.4,3.8-13-.38L941,210l-4.16,11,9.42,2.63-2.85,15.11-22,1.69L909,242.26,906.51,250l5.56,12.6,3.56,8.95-5.51,2.69-6-8.53-11.4.5-7.79-3.9-3.49-4.45-13.81-6.18-7-4-3.84,2.37-4.59-2.2-7.58-5-7.88-1.68,0-3.88,2.7-2.42.47-1.84,9.22-4.3L838,214.68l-12-4-2-5.46,2-3.57L821,194.9l-2.55-6.36,9.93-3.85Z" transform="translate(-396.03 0.13)"/>
        <path id="path914-7-3-2" class="cls-1" d="M923.7,288l10-4.88,14.17,5.17,3.45,6.29,9.81,11.25,14.74,6.51,1.74,8.62-7.39,5,.16,9.19L966,342.44l-19.78,10.81L934,341.75l-13.63,7.12L925.71,361l-5.43,20.1L922,400.74l-27.67-6.32-30.07-.17-2.85-9.85-4.34-6.48,6.32-8.62L867.74,356l6.92-4.4-1.31-11.85,4.84-3.41-3.94-7.1L867.71,321l-13.46-7.26-3.06,6.81-14.38-2.42-7.11-.33,2.15-42.61,2.59-8.68,8.42-8.46,10.06-4.75-.7-5.33,4.59,2.2,3.84-2.37,20.84,10.14,3.49,4.45,7.79,3.9,11.4-.5,6,8.53.81,8.94Z" transform="translate(-396.03 0.13)"/>
        <path id="path1312-9-9" class="cls-3" d="M1165.94,421.35l-1.6-9.81L1162,400.41l-3.41-3.71.59-15.88L1153.06,369l7.87-6.09L1176.21,348l1.78-7.27-3.86-6.38,5.2-10.69,7.27-7.57L1181,308l-2.67-5.34-3.63-11.14-6.25,3.79-35.67-3-1.47,1.58,17.84,18.57,2,15.43,2.94,3L1140,336.35l-17.74,16.47-6.66,17.81,8.36,5.4,5.63,15.58-8,6.26-4.35-2.23,4.3,20.76,13.29.05,6.93,7.17,11.2-.25Z" transform="translate(-396.03 0.13)"/>
        <path id="path916-9-4" class="cls-1" d="M717.91,224.94l.45,6.77-1.29,2.47,9.69,4L732,249.78l-7.79,4.47-4.62-.84L704,251.89l-2.24,2.36-5.75,1.4,2.54-5.59,1.44-2.92-.87-3.31L692.51,240l-.07-4.42-3.29-4.13L706.28,227l4.63-2Z" transform="translate(-396.03 0.13)"/></g>
    </svg>